Coordinates
version=1
nRows=6
nColumns=46
inDegrees=yes

Units are S.I. units (second, meters, Newtons, ...)
Angles are in degrees.

endheader
time	pelvis_tilt	pelvis_list	pelvis_rotation	pelvis_tx	pelvis_ty	pelvis_tz	bb_angle	bb_tx	bb_ty	bb_tz	hip_flexion_r	hip_adduction_r	hip_rotation_r	knee_angle_r	knee_angle_r_beta	ankle_angle_r	subtalar_angle_r	mtp_angle_r	crank_angle_r	hip_flexion_l	hip_adduction_l	hip_rotation_l	knee_angle_l	knee_angle_l_beta	ankle_angle_l	subtalar_angle_l	mtp_angle_l	crank_angle_l	lumbar_extension	lumbar_bending	lumbar_rotation	arm_flex_r	arm_add_r	arm_rot_r	elbow_flex_r	pro_sup_r	wrist_flex_r	wrist_dev_r	arm_flex_l	arm_add_l	arm_rot_l	elbow_flex_l	pro_sup_l	wrist_flex_l	wrist_dev_l
      0.00500000	    -21.66924568	     -5.05304364	     -3.94545182	      0.09815696	      1.12709681	     -0.22764602	      0.00000000	      0.50000000	      0.00000000	      0.25000000	     97.74098178	     -9.70631022	     -6.95938133	    104.52280539	      1.82426710	     26.10548344	      9.45884189	      0.00000000	      0.00000000	     52.37455366	    -17.10007164	     -9.96804507	     50.31358774	      0.87813776	     12.50474601	     11.88575110	      0.00000000	      0.00000000	    -48.57795036	      4.51625515	      7.38980561	     89.70758434	     -3.50657546	     25.60514179	     37.73946137	     20.79056512	      0.00000000	      0.00000000	     89.77261742	      3.46737240	     30.18570024	     48.43394895	     18.36744782	      0.00000000	      0.00000000
      0.01000000	    -21.68212147	     -5.07730849	     -3.93426207	      0.09814093	      1.12706200	     -0.22765059	      0.00000000	      0.50000000	      0.00000000	      0.25000000	     97.74734134	     -9.71486506	     -6.98601805	    104.52399690	      1.82428789	     26.11325873	      9.44761173	      0.00000000	      0.00000000	     52.39817029	    -17.09343172	     -9.90950964	     50.31507817	      0.87816378	     12.51897797	     11.85055386	      0.00000000	      0.00000000	    -48.56457862	      4.53299166	      7.43038856	     89.70775123	     -3.62851578	     25.83114583	     37.65128871	     21.43467776	      0.00000000	      0.00000000	     89.77278011	      3.59009272	     30.07036328	     48.27157940	     18.87563485	      0.00000000	      0.00000000
      0.01500000	    -21.65181459	     -5.07816020	     -3.89871311	      0.09814786	      1.12713134	     -0.22774125	      0.00000000	      0.50000000	      0.00000000	      0.25000000	     97.71420265	     -9.75921420	     -6.98470422	    104.52596787	      1.82432229	     26.09284358	      9.43788454	      0.00000000	      0.00000000	     52.36688404	    -17.04984542	     -9.86712566	     50.29200805	      0.87776113	     12.47034546	     11.81228115	      0.00000000	      0.00000000	    -48.59193575	      4.55899703	      7.46196996	     89.70271387	     -3.43332317	     24.89158395	     37.16032429	     24.07399565	      0.00000000	      0.00000000	     89.77507393	      3.75634831	     29.91130574	     47.43644959	     22.43275609	      0.00000000	      0.00000000
      0.02000000	    -21.75498433	     -5.07092848	     -4.00080220	      0.09814961	      1.12674317	     -0.22733746	      0.00000000	      0.50000000	      0.00000000	      0.25000000	     97.88763328	     -9.61443062	     -6.96585772	    104.55082460	      1.82475612	     26.01814725	      9.37704637	      0.00000000	      0.00000000	     52.40262823	    -16.95468368	     -9.72314257	     50.18740746	      0.87593550	     12.51817711	     11.66492947	      0.00000000	      0.00000000	    -48.47325303	      4.52638403	      7.47587378	     89.70639979	     -3.27785280	     24.70960313	     36.86889466	     25.03730857	      0.00000000	      0.00000000	     89.77157121	      3.57889439	     29.96779067	     47.26735626	     23.50101370	      0.00000000	      0.00000000
      0.02500000	    -21.63604818	     -5.05856935	     -3.95025424	      0.09821317	      1.12713511	     -0.22759560	      0.00000000	      0.50000000	      0.00000000	      0.25000000	     97.74223817	     -9.67968096	     -6.93794325	    104.57391711	      1.82515917	     26.15059741	      9.57732485	      0.00000000	      0.00000000	     52.31586799	    -17.12920464	     -9.94946885	     50.31308773	      0.87812904	     12.64110142	     11.97352206	      0.00000000	      0.00000000	    -48.65750634	      4.50340856	      7.51492508	     89.69646831	     -3.30864320	     23.97632765	     37.19428692	     26.22374724	      0.00000000	      0.00000000	     89.77054426	      3.63926134	     29.73518306	     47.35705807	     24.79698542	      0.00000000	      0.00000000
      0.03000000	    -21.61386366	     -5.11728664	     -3.96551086	      0.09817078	      1.12724761	     -0.22751105	      0.00000000	      0.50000000	      0.00000000	      0.25000000	     97.67603773	     -9.65921002	     -6.98515374	    104.53648689	      1.82450588	     26.19168290	      9.90503610	      0.00000000	      0.00000000	     52.31565238	    -17.26388267	     -9.95763729	     50.36831107	      0.87909287	     12.79427618	     12.56787234	      0.00000000	      0.00000000	    -48.77265854	      4.53873751	      7.64919846	     89.68917482	     -3.27304042	     23.15884785	     37.38787533	     27.66337821	      0.00000000	      0.00000000	     89.76889850	      3.71906992	     29.36791195	     47.29152423	     26.38117974	      0.00000000	      0.00000000
